<svg xmlns="http://www.w3.org/2000/svg" width="280.031" height="44.438" viewBox="0 0 280.031 44.438">
  <defs>
    <style>
      .cls-1 {
        fill: #fff;
        fill-rule: evenodd;
      }
    </style>
  </defs>
  <path id="dentalProfessionals.svg" class="cls-1" d="M105.142,67.959a8.774,8.774,0,0,0-.19,1.408c0,1.056.515,1.083,2,1.083a6.31,6.31,0,0,0,5.772-3.439,16.779,16.779,0,0,0,1.735-6.852c0-4.089-2.033-5.281-5.474-5.281a5.274,5.274,0,0,0-1.03.081,1.147,1.147,0,0,1-.136.027h0.028a0.405,0.405,0,0,1-.19.027c-0.217.867-.352,1.625-0.515,2.546-0.3,1.571-.677,3.493-1,5.2C105.819,64.357,105.44,66.442,105.142,67.959Zm-2-9.37a18.833,18.833,0,0,0,.406-3.9,1.655,1.655,0,0,1,1.843-1.6c0.515,0.027,1,.054,1.626.054,0.271,0,1,0,1.761-.027,0.786-.027,1.6-0.054,1.924-0.054,1.761,0,5.934.135,7.371,3.954a8.562,8.562,0,0,1,.487,2.708,16.831,16.831,0,0,1-1.327,5.9,10.483,10.483,0,0,1-10.379,6.581c-0.244,0-.976,0-1.734-0.027-0.7-.027-1.6-0.054-1.87-0.054-0.244,0-.488,0-0.813.027H102.3c-0.054,0-.108.027-0.162,0.027a1.3,1.3,0,0,1-1.518-1.408,34.075,34.075,0,0,0,1.03-4.36c0.244-1.273.488-2.627,0.759-3.927C102.649,61.161,102.893,59.889,103.137,58.589Zm21.731,4.5c-0.434,0-.813.027-1.084,0.027l-0.921,4.983a6.7,6.7,0,0,0-.163,1.273c0,0.894.542,0.894,2.168,0.894a22.47,22.47,0,0,0,3.55-.244c0.027,0,.108-0.027.162-0.027a0.6,0.6,0,0,1,.244-0.054,0.5,0.5,0,0,1,.19-0.054c0.84-.189,1.626.244,1.463,0.867a2.373,2.373,0,0,1-2.412,1.489H125.22c-0.379,0-.813-0.027-1.219-0.027-1.138.027-3.008,0.027-4.065,0.027a1.269,1.269,0,0,1-1.409-1.516,42.851,42.851,0,0,0,.975-4.468l0.759-4.143a64.946,64.946,0,0,0,1.084-7.366,2.045,2.045,0,0,1,2.032-1.6c1.111,0.027,2.656.027,3.767,0.027,1.545,0,3.008-.027,4.2-0.054a1.334,1.334,0,0,1,1.409,1.164,1.672,1.672,0,0,1-1.951.921,18.287,18.287,0,0,0-2.411-.135c-1.03,0-2.168.027-2.9,0.054-0.054,0-.108.027-0.163,0.027-0.189.948-.352,1.95-0.542,2.952-0.189,1.029-.406,1.977-0.6,2.952h0.732c0.108,0,.217-0.027.325-0.027h0.3c0.407,0,.894-0.027,1.193-0.054,0.921-.054,1.869.352,1.734,1.029-0.136.758-1.409,1.137-2.358,1.137C125.762,63.111,125.22,63.084,124.868,63.084Zm18.676,1c0.379,0.921.731,1.706,0.975,2.3V66.334c0.19-1.083.353-2.139,0.515-3.2l0.081-.487,1-5.5c0.217-1.165.325-1.95,0.379-2.492a1.914,1.914,0,0,1,2.033-1.517h0.135a1.239,1.239,0,0,1,1.409,1.408c-0.352,1.029-.813,2.9-1.165,4.468-0.054.271-.108,0.514-0.162,0.785-0.19.948-.38,2-0.6,3.006-0.216,1.029-.406,2.058-0.6,3.033a5.438,5.438,0,0,1-.108.65c-0.027.108-.054,0.244-0.081,0.352-0.3,1.6-.461,2.573-0.57,3.6,0,0.027-.027.054-0.027,0.081a1.559,1.559,0,0,0-.027.325,1.689,1.689,0,0,1-1.869,1.3,2.375,2.375,0,0,1-2.141-1.11c-0.244-.7-0.678-1.706-1.707-4.062-0.434-.975-0.868-1.95-1.3-2.952s-0.894-1.977-1.328-2.952c-0.081-.19-0.19-0.46-0.271-0.65a14.78,14.78,0,0,1-1.192-2.789c-0.271,1.652-.461,2.843-0.867,5.443-0.109.731-.244,1.571-0.407,2.546-0.433,2.6-.623,4.116-0.677,5.037a1.873,1.873,0,0,1-2.114,1.408h-0.244a1.3,1.3,0,0,1-1.517-1.354,100.194,100.194,0,0,0,2.384-10.914,33.3,33.3,0,0,0,.624-5.118,1.671,1.671,0,0,1,1.815-1.544h1.165a2.332,2.332,0,0,1,2.412,1.544h-0.027c0.217,0.623.488,1.219,0.976,2.3Zm12.109-4.252c0.054-.352.135-0.677,0.189-1,0.244-1.571.434-2.6,0.515-3.2,0.027-.108.027-0.244,0.054-0.379a0.255,0.255,0,0,0,.055-0.189H154.7a9.046,9.046,0,0,0-2.52.244c-0.921.244-1.816-.352-1.626-1.056v0.027a2.28,2.28,0,0,1,2.385-1.246c0.3,0.027.65,0.027,1.029,0.027h8.916c0.162,0,.325-0.027.46-0.027H163.7a7.893,7.893,0,0,0,.84-0.027c0.948-.027,1.761.569,1.626,1.273-0.163.731-1.22,0.921-2.141,0.84a6.247,6.247,0,0,0-1.057-.054H160.4c-0.3,1.164-.759,3.466-0.976,4.55a1.672,1.672,0,0,1-.081.3l0.027-.027v0.163c-0.19,1.11-.406,2.194-0.623,3.358s-0.407,2.275-.624,3.439c-0.3,1.706-.514,3.141-0.6,3.873a1.948,1.948,0,0,1-2.086,1.381h-0.38c-0.948.027-1.9-.569-1.653-1.327,0.326-1,.732-2.816,1.03-4.333Zm11.5,4.6c1.625,0.027,2.3.027,2.872,0.027,0.65,0,1.03,0,1.653-.027-0.081-.894-0.136-1.814-0.217-2.708-0.081-.921-0.189-1.814-0.271-2.708-0.108-.867-0.162-1.489-0.189-1.869V57.126c-0.028.027-.028,0.054-0.055,0.081-0.162.271-.3,0.542-0.46,0.839-0.217.406-.434,0.785-0.6,1.083a6.1,6.1,0,0,0-.3.6Zm8.752,3.168c0.054,0.487.109,0.948,0.163,1.327,0.027,0.108.027,0.3,0.054,0.379,0.081,0.623.136,1,.19,1.327A1.57,1.57,0,0,1,174.5,72.1l-0.081-.027h-0.3A1.659,1.659,0,0,1,172.2,70.8c0-.162-0.027-0.487-0.054-0.785-0.027-.271-0.055-0.731-0.082-1.11-0.027-.325-0.054-0.812-0.081-1.137-0.027-.46-0.054-0.867-0.081-1.273h-5.691l-0.6,1.246c-0.217.433-.406,0.894-0.623,1.3-0.325.677-.6,1.273-0.759,1.679a2.449,2.449,0,0,1-2.412,1.381,0.833,0.833,0,0,0-.244-0.027c-0.785,0-1.49-.65-1.192-1.219,0.786-1.327,1.707-3.033,2.52-4.6l0.651-1.192c1.354-2.519,4.064-7.827,5.419-10.589a3.074,3.074,0,0,1,2.764-1.273,4.023,4.023,0,0,0,.569.027c1.111,0,2.168.542,2.249,1.408,0.055,0.758.109,1.517,0.19,2.3,0,0.135.027,0.271,0.027,0.406,0.027,0.135.027,0.325,0.054,0.46,0,0.108.027,0.19,0.027,0.3Zm4.24-10.21c0.244-1.327.352-2.166,0.407-2.789a1.779,1.779,0,0,1,1.978-1.462h0.488a1.334,1.334,0,0,1,1.571,1.246c-0.217.758-.6,2.356-0.975,4.333-0.271,1.462-.542,3.033-0.813,4.577-0.271,1.571-.569,3.087-0.84,4.577a9.444,9.444,0,0,0-.19,1.435c0,0.569.163,0.758,0.461,0.785,0.894,0.054,1.544.054,2.086,0.054a10.224,10.224,0,0,0,3.035-.379c0.759-.271,1.626.162,1.518,0.758a2.052,2.052,0,0,0-.082.217h0.028a2.519,2.519,0,0,1-2.385,1.462c-1.68-.054-3.631-0.108-5.366-0.108-0.867,0-1.517.027-2.059,0.054-0.894-.027-1.734-0.677-1.545-1.354a39.742,39.742,0,0,0,1.03-4.387ZM200.9,62.651h0.488a8.853,8.853,0,0,0,3.333-.569H204.7c1.869-.975,2.276-3.548,2.276-4.6,0-2.654-2.141-2.654-3.306-2.654h-0.3c-0.136,0-.3.027-0.488,0.027h-0.244a0.263,0.263,0,0,1-.162.027c-0.271,1.137-.407,1.869-0.515,2.383,0,0.054-.027.081-0.027,0.135-0.027.135-.055,0.244-0.082,0.379-0.054.217-.108,0.433-0.162,0.7Zm-2.9-4.2c0.353-1.923.515-3.06,0.6-3.791a1.733,1.733,0,0,1,1.9-1.544h0.434c0.677,0,1.545-.027,2.358-0.054h0.243c0.569-.027,1.382-0.054,1.68-0.054,3.144,0,5.772.948,5.772,4.306,0,1.3-.542,7.42-9.159,7.42H200.6c-0.3,1.625-.569,3.25-0.867,4.9,0,0.054-.027.108-0.027,0.163a0.319,0.319,0,0,1-.055.162l0.027-.027q-0.041.366-.081,0.65a2.036,2.036,0,0,1-2.141,1.544H197a1.329,1.329,0,0,1-1.491-1.462,32.655,32.655,0,0,0,.922-3.818c0.027-.108.054-0.244,0.081-0.352Zm17.188,3.791h0.271c0.19,0,.38.027,0.569,0.027a7.07,7.07,0,0,0,3.035-.542,4.41,4.41,0,0,0,2.331-3.981c0-2.166-1.355-2.816-3.008-2.816-0.461,0-.9.054-1.762,0.136-0.271,1.083-.406,1.706-0.813,3.764Zm8.319-.352a7.684,7.684,0,0,1-3.522,1.9,12.464,12.464,0,0,0,3.549,7.2,0.763,0.763,0,0,1-.758,1.165h-0.461c-0.054,0-.136-0.027-0.217-0.027a3.457,3.457,0,0,1-2.9-1.137,20.446,20.446,0,0,1-1.545-2.627A15.57,15.57,0,0,1,216.3,64.3h-1.49c-0.136.894-.3,1.869-0.488,2.9s-0.352,2.058-.515,2.952v0.108a1.18,1.18,0,0,1-.027.135,0.764,0.764,0,0,1-.027.217,2.065,2.065,0,0,1-2.087,1.544,0.587,0.587,0,0,0-.162-0.027l-0.19.027c-0.975,0-1.815-.7-1.626-1.408a41.362,41.362,0,0,0,.976-4.252c0.189-1,.379-2,0.569-3.033,0.406-2.166.813-4.333,1.192-6.391a22.158,22.158,0,0,0,.352-2.41,1.788,1.788,0,0,1,1.9-1.517h1.68c0.678-.027,1.653-0.027,2.006-0.027,0.216,0,.433-0.027.6-0.027h0.379a8.5,8.5,0,0,1,4.146.758,4.307,4.307,0,0,1,2.06,3.656A6.318,6.318,0,0,1,223.508,61.893Zm13.047-7.2c-5.148,0-7.127,6.5-7.127,10.643a8.334,8.334,0,0,0,.678,3.493,3.765,3.765,0,0,0,3.143,1.869c5.23,0,7.019-7.1,7.019-10.995,0-1.273-.163-3.2-1.355-4.225Zm7.777,4.821c0,4.55-3.035,13.026-11.245,13.026a8.048,8.048,0,0,1-5.908-2.248,7.8,7.8,0,0,1-1.788-5.01,13.443,13.443,0,0,1,5.257-10.643,10.338,10.338,0,0,1,6.205-1.869C241.785,52.766,244.332,55.258,244.332,59.509Zm4.321,9.18c-0.163.867-.244,1.489-0.3,1.95a1.945,1.945,0,0,1-2.06,1.517h-0.488a1.31,1.31,0,0,1-1.49-1.435,18.264,18.264,0,0,0,.65-2.817l1.789-9.56a23.282,23.282,0,0,0,.488-3.656,1.626,1.626,0,0,1,1.788-1.516h1.247c0.406,0,1.707,0,2.9-.027,0.678,0,1.328-.027,1.762-0.027h0.46c0.759-.027,1.22-0.054,1.626-0.081a1.5,1.5,0,0,1,1.518,1.435c-0.163.731-1.3,1.083-2.277,0.921a10.589,10.589,0,0,0-2.168-.19c-0.6,0-.731,0-2.926.081-0.379,1.381-.705,3.141-1,4.82-0.027.19-.081,0.379-0.108,0.6a4.512,4.512,0,0,0-.081.6h0.243c0.57,0.027,1,.027,1.41.027a17.834,17.834,0,0,0,2.167-.108q0.366-.041.651-0.081c0.054,0,.135-0.027.162-0.027H254.7c0.867-.108,1.815.46,1.761,1.11a1.959,1.959,0,0,1-2.33,1.246,12.185,12.185,0,0,0-2.277-.135H249.6Zm14.158-5.606c-0.433,0-.813.027-1.084,0.027l-0.921,4.983a6.787,6.787,0,0,0-.163,1.273c0,0.894.542,0.894,2.168,0.894a22.463,22.463,0,0,0,3.55-.244c0.027,0,.109-0.027.163-0.027a0.579,0.579,0,0,1,.244-0.054,0.5,0.5,0,0,1,.189-0.054c0.84-.189,1.626.244,1.464,0.867a2.374,2.374,0,0,1-2.412,1.489h-2.845c-0.38,0-.813-0.027-1.22-0.027-1.138.027-3.008,0.027-4.065,0.027a1.27,1.27,0,0,1-1.409-1.516,43.04,43.04,0,0,0,.976-4.468l0.759-4.143a65.443,65.443,0,0,0,1.084-7.366,2.044,2.044,0,0,1,2.032-1.6c1.111,0.027,2.656.027,3.767,0.027,1.544,0,3.007-.027,4.2-0.054a1.335,1.335,0,0,1,1.409,1.164,1.673,1.673,0,0,1-1.951.921,18.32,18.32,0,0,0-2.412-.135c-1.03,0-2.168.027-2.9,0.054-0.055,0-.109.027-0.163,0.027-0.19.948-.352,1.95-0.542,2.952-0.19,1.029-.406,1.977-0.6,2.952h0.732c0.108,0,.216-0.027.325-0.027h0.3c0.406,0,.894-0.027,1.192-0.054,0.921-.054,1.87.352,1.734,1.029-0.135.758-1.409,1.137-2.357,1.137C263.706,63.111,263.164,63.084,262.811,63.084Zm11.438-.271c-1.409-.921-2.98-1.95-2.98-3.927,0-2.735,2.655-6.147,8.319-6.147a13.064,13.064,0,0,1,2.628.271,1.52,1.52,0,0,1,1.3,1.814V54.8a1.126,1.126,0,0,1-1.247.7,2.765,2.765,0,0,1-1.029-.19,4.846,4.846,0,0,0-2.331-.542,3.6,3.6,0,0,0-3.848,3.466c0,1.706,1.166,2.329,2.114,2.871l1.572,0.921c1.653,0.975,3.333,2.031,3.333,3.981,0,2.519-2.439,4.5-3.55,5.227a11.419,11.419,0,0,1-5.745,1.381,10.481,10.481,0,0,1-2.493-.3,1.513,1.513,0,0,1-1.165-1.9,1.273,1.273,0,0,1,1.355-.7,3.1,3.1,0,0,1,1.246.3l0.054,0.054a6.905,6.905,0,0,0,2.114.352c2.358,0,4.309-1.408,4.309-3.737,0-1.49-.84-2.058-2.412-2.952Zm-2.574,7.231a0.1,0.1,0,0,0,.081.027Zm15.186-7.231c-1.409-.921-2.981-1.95-2.981-3.927,0-2.735,2.656-6.147,8.319-6.147a13.074,13.074,0,0,1,2.629.271,1.52,1.52,0,0,1,1.3,1.814V54.8a1.125,1.125,0,0,1-1.246.7,2.77,2.77,0,0,1-1.03-.19,4.844,4.844,0,0,0-2.33-.542,3.6,3.6,0,0,0-3.848,3.466c0,1.706,1.165,2.329,2.113,2.871l1.572,0.921c1.653,0.975,3.333,2.031,3.333,3.981,0,2.519-2.439,4.5-3.55,5.227a11.416,11.416,0,0,1-5.745,1.381,10.481,10.481,0,0,1-2.493-.3,1.513,1.513,0,0,1-1.165-1.9,1.274,1.274,0,0,1,1.355-.7,3.109,3.109,0,0,1,1.247.3l0.054,0.054a6.894,6.894,0,0,0,2.113.352c2.358,0,4.309-1.408,4.309-3.737,0-1.49-.84-2.058-2.412-2.952Zm-2.575,7.231a0.1,0.1,0,0,0,.082.027ZM297.7,57.83c0.3-1.489.434-2.491,0.515-3.169a1.787,1.787,0,0,1,1.9-1.544h0.6a1.323,1.323,0,0,1,1.491,1.435c-0.217.731-.488,2-0.813,3.629-0.542,3.006-1.165,6.418-1.707,9.424-0.271,1.408-.407,2.356-0.488,3.033a1.937,1.937,0,0,1-2.087,1.489h-0.488a1.3,1.3,0,0,1-1.517-1.408c0.163-.515.3-1.083,0.515-2,0.027-.162.081-0.325,0.108-0.487l0.082-.325c0.027-.108.027-0.19,0.054-0.3Zm15.567-3.141c-5.149,0-7.127,6.5-7.127,10.643a8.334,8.334,0,0,0,.678,3.493,3.763,3.763,0,0,0,3.143,1.869c5.23,0,7.018-7.1,7.018-10.995,0-1.273-.162-3.2-1.355-4.225Zm7.777,4.821c0,4.55-3.035,13.026-11.246,13.026a8.045,8.045,0,0,1-5.907-2.248,7.791,7.791,0,0,1-1.789-5.01,13.445,13.445,0,0,1,5.258-10.643,10.338,10.338,0,0,1,6.2-1.869C318.5,52.766,321.046,55.258,321.046,59.509Zm12.241,4.577c0.38,0.921.732,1.706,0.976,2.3V66.334c0.189-1.083.352-2.139,0.515-3.2l0.081-.487,1-5.5c0.217-1.165.326-1.95,0.38-2.492a1.912,1.912,0,0,1,2.032-1.517h0.136a1.24,1.24,0,0,1,1.409,1.408c-0.352,1.029-.813,2.9-1.165,4.468-0.055.271-.109,0.514-0.163,0.785-0.19.948-.379,2-0.6,3.006-0.217,1.029-.407,2.058-0.6,3.033a5.442,5.442,0,0,1-.109.65c-0.027.108-.054,0.244-0.081,0.352-0.3,1.6-.461,2.573-0.569,3.6,0,0.027-.027.054-0.027,0.081a1.559,1.559,0,0,0-.027.325,1.69,1.69,0,0,1-1.87,1.3,2.375,2.375,0,0,1-2.141-1.11c-0.244-.7-0.677-1.706-1.707-4.062-0.434-.975-0.867-1.95-1.3-2.952s-0.894-1.977-1.327-2.952c-0.082-.19-0.19-0.46-0.271-0.65a14.769,14.769,0,0,1-1.193-2.789c-0.271,1.652-.46,2.843-0.867,5.443-0.108.731-.244,1.571-0.406,2.546-0.434,2.6-.624,4.116-0.678,5.037a1.872,1.872,0,0,1-2.113,1.408h-0.244a1.3,1.3,0,0,1-1.518-1.354,99.817,99.817,0,0,0,2.385-10.914,33.386,33.386,0,0,0,.623-5.118,1.672,1.672,0,0,1,1.816-1.544h1.165a2.333,2.333,0,0,1,2.412,1.544h-0.028c0.217,0.623.488,1.219,0.976,2.3Zm10.779,0.352c1.625,0.027,2.3.027,2.872,0.027,0.65,0,1.03,0,1.653-.027-0.081-.894-0.136-1.814-0.217-2.708-0.081-.921-0.19-1.814-0.271-2.708-0.108-.867-0.162-1.489-0.19-1.869V57.126c-0.027.027-.027,0.054-0.054,0.081-0.162.271-.3,0.542-0.46,0.839-0.217.406-.434,0.785-0.6,1.083a6.277,6.277,0,0,0-.3.6Zm8.752,3.168c0.054,0.487.109,0.948,0.163,1.327,0.027,0.108.027,0.3,0.054,0.379,0.081,0.623.135,1,.19,1.327a1.57,1.57,0,0,1-1.816,1.462l-0.081-.027h-0.3a1.659,1.659,0,0,1-1.924-1.273c0-.162-0.027-0.487-0.054-0.785-0.028-.271-0.055-0.731-0.082-1.11-0.027-.325-0.054-0.812-0.081-1.137-0.027-.46-0.054-0.867-0.081-1.273h-5.691l-0.6,1.246c-0.217.433-.407,0.894-0.623,1.3-0.325.677-.6,1.273-0.759,1.679a2.449,2.449,0,0,1-2.412,1.381,0.833,0.833,0,0,0-.244-0.027c-0.786,0-1.49-.65-1.192-1.219,0.786-1.327,1.707-3.033,2.52-4.6l0.65-1.192c1.355-2.519,4.065-7.827,5.42-10.589a3.074,3.074,0,0,1,2.764-1.273,4.016,4.016,0,0,0,.569.027c1.111,0,2.168.542,2.249,1.408,0.054,0.758.109,1.517,0.19,2.3,0,0.135.027,0.271,0.027,0.406,0.027,0.135.027,0.325,0.054,0.46,0,0.108.027,0.19,0.027,0.3Zm4.24-10.21c0.244-1.327.352-2.166,0.407-2.789a1.779,1.779,0,0,1,1.978-1.462h0.487a1.334,1.334,0,0,1,1.572,1.246c-0.217.758-.6,2.356-0.975,4.333-0.271,1.462-.542,3.033-0.813,4.577-0.271,1.571-.569,3.087-0.84,4.577a9.444,9.444,0,0,0-.19,1.435c0,0.569.163,0.758,0.461,0.785,0.894,0.054,1.544.054,2.086,0.054a10.224,10.224,0,0,0,3.035-.379c0.759-.271,1.626.162,1.518,0.758a1.853,1.853,0,0,0-.082.217h0.027a2.517,2.517,0,0,1-2.384,1.462c-1.68-.054-3.631-0.108-5.366-0.108-0.867,0-1.517.027-2.059,0.054-0.894-.027-1.734-0.677-1.545-1.354a39.742,39.742,0,0,0,1.03-4.387Zm14.267,5.416c-1.409-.921-2.981-1.95-2.981-3.927,0-2.735,2.656-6.147,8.319-6.147a13.066,13.066,0,0,1,2.629.271,1.521,1.521,0,0,1,1.3,1.814V54.8a1.127,1.127,0,0,1-1.247.7,2.773,2.773,0,0,1-1.03-.19,4.841,4.841,0,0,0-2.33-.542,3.6,3.6,0,0,0-3.848,3.466c0,1.706,1.165,2.329,2.114,2.871l1.571,0.921c1.653,0.975,3.333,2.031,3.333,3.981,0,2.519-2.438,4.5-3.549,5.227a11.419,11.419,0,0,1-5.745,1.381,10.481,10.481,0,0,1-2.493-.3,1.512,1.512,0,0,1-1.165-1.9,1.273,1.273,0,0,1,1.355-.7,3.1,3.1,0,0,1,1.246.3l0.054,0.054a6.905,6.905,0,0,0,2.114.352c2.357,0,4.308-1.408,4.308-3.737,0-1.49-.84-2.058-2.411-2.952Zm-2.574,7.231a0.1,0.1,0,0,0,.081.027ZM192.092,81.379a2.019,2.019,0,0,0-1.381-.588c-3.235,0-4.027,5.223-4.027,6.987,0,2.126.905,2.872,1.946,2.872,3.575,0,4.073-6.105,4.073-7.191A2.847,2.847,0,0,0,192.092,81.379Zm2.579-.95a4.169,4.169,0,0,1,1.222,3.12c0,3.528-2.285,8.615-7.467,8.615a5.226,5.226,0,0,1-3.484-1.153,4.5,4.5,0,0,1-1.4-3.5c0-3.641,2.421-8.253,7.512-8.253A4.879,4.879,0,0,1,194.671,80.429Zm2.317-.565a1.164,1.164,0,0,1,1.109-.633c0.43-2.419,1.108-3.6,2.375-4.59a5.969,5.969,0,0,1,3.236-.972,0.891,0.891,0,0,1,1.041,1.04,1.964,1.964,0,0,1-1.7.7c-1.109.068-1.629,1.832-2.037,3.844h0.7c0.09,0,.181-0.023.249-0.023h0.565a0.941,0.941,0,0,1,1.109.814,1.3,1.3,0,0,1-1.38.7c-0.294-.023-0.973-0.023-1.222-0.023h-0.294c-0.2,1.176-.407,2.329-0.588,3.573-0.2,1.244-.408,2.465-0.611,3.641a4.656,4.656,0,0,1-.091.543c-0.045.181-.068,0.384-0.113,0.565-0.068.339-.136,0.746-0.2,1.085-0.384,2.171-1.606,6.784-6.222,7.055a0.937,0.937,0,0,1-.973-1.063,1.707,1.707,0,0,1,1.562-.746,2.268,2.268,0,0,0,1.357-.927c0.679-.814,1.154-3.166,1.629-5.924,0.226-1.266.43-2.623,0.656-3.934,0.227-1.334.43-2.623,0.589-3.889A0.8,0.8,0,0,1,196.988,79.864Zm20.456,4.161c0.045,0.611.09,1.266,0.136,1.922l0.135,1.9c0.091,1.334.113,2.216,0.113,2.849a1.6,1.6,0,0,0,1.7,1.176c0.046,0,.068-0.023.114-0.023h0.429a0.486,0.486,0,0,1,.136.023,2.207,2.207,0,0,0,2.218-1.176c0.045-.136.09-0.271,0.158-0.43,0.045-.113.09-0.226,0.136-0.339,0.339-.9.633-1.538,0.973-2.306,0.045-.091.067-0.181,0.113-0.271,0.565-1.244,1.176-2.623,1.832-4.047,0.657-1.4,1.29-2.8,1.833-4.047,0.068-.158.159-0.317,0.226-0.452,0.362-.746.634-1.312,0.905-1.786,0.272-.43-0.271-0.995-1-0.995a1.388,1.388,0,0,1-.294.023h-0.272a1.923,1.923,0,0,0-2.013,1.108,85.017,85.017,0,0,1-4.1,10.7c-0.045.09-.068,0.226-0.113,0.317-0.09-1.357-.136-1.7-0.226-2.849s-0.136-2.4-.249-3.663c-0.068-1.2-.113-2.035-0.113-2.691,0-.158.022-0.294,0.022-0.43V78.19a1.333,1.333,0,0,0-1.583-1.131c-1,.023-1.969.362-2.195,1.085-0.34.995-.7,1.922-1.29,3.256-0.565,1.244-1.131,2.487-1.719,3.754-0.476.972-.905,1.967-1.335,2.962-0.023-.271-0.046-0.52-0.046-0.7-0.045-.678-0.09-1.131-0.113-1.967l-0.294-6.309c-0.022-.362-0.022-0.678-0.022-0.972,0-.362,0-0.678.022-0.95A1.38,1.38,0,0,0,210.113,76h-0.43a1.229,1.229,0,0,0-1.425,1.131,20.652,20.652,0,0,1,.294,2.849c0,0.068.022,0.158,0.022,0.249l0.5,8.5a18.332,18.332,0,0,1,.045,1.854,1.613,1.613,0,0,0,1.675,1.289c0.045,0,.068-0.023.113-0.023h0.317a0.511,0.511,0,0,1,.158.023,2.336,2.336,0,0,0,2.285-1.131l0.543-1.334a1.763,1.763,0,0,1,.068-0.181,41.942,41.942,0,0,1,1.878-4.047h-0.023a2.606,2.606,0,0,0,.136-0.249c0.091-.2.2-0.452,0.317-0.724,0.113-.226.249-0.475,0.362-0.724,0.158-.317.272-0.588,0.407-0.859C217.376,83.007,217.4,83.436,217.444,84.024Zm-5.611,4.7h-0.114c0-1.447.023-2.781,0.362-.543A5.676,5.676,0,0,1,211.833,88.727ZM232.526,76.4a2,2,0,0,1-1.991,1.9,1.351,1.351,0,0,1-1.561-1.2,1.973,1.973,0,0,1,2.036-1.854A1.31,1.31,0,0,1,232.526,76.4Zm-1.81,9.927c-0.408,2.261-.589,3.6-0.656,4.364a1.577,1.577,0,0,1-1.72,1.108h-0.181a1.164,1.164,0,0,1-1.222-1.176,0.971,0.971,0,0,0,.023-0.113c0.113-.475.271-1.108,0.43-2.035l0.384-2.216a32.1,32.1,0,0,0,.724-5.269,1.1,1.1,0,0,1,1.086-1.244c0.317-.045.543-0.09,0.792-0.136a1.09,1.09,0,0,1,1.381,1,1.729,1.729,0,0,0-.046.362c-0.09.407-.2,0.95-0.339,1.7Zm3.44-.158c-0.7-.407-2.037-1.221-2.037-2.668a4.419,4.419,0,0,1,1.946-3.234,6.929,6.929,0,0,1,3.847-1.017,5.814,5.814,0,0,1,1.561.158H239.45a1.041,1.041,0,0,1,.905,1.334,1.153,1.153,0,0,1-1.109.543,1.612,1.612,0,0,1-.769-0.158H238.5a2.674,2.674,0,0,0-1.109-.271,2.088,2.088,0,0,0-2.217,1.945,2.15,2.15,0,0,0,1.47,1.9l1.132,0.7a2.967,2.967,0,0,1,1.832,2.442,4.2,4.2,0,0,1-1.923,3.3,6.816,6.816,0,0,1-4.05,1.04,8.773,8.773,0,0,1-1.674-.158,1.311,1.311,0,0,1-1.2-1.289,1.388,1.388,0,0,1,1.9-.678H232.64a3.853,3.853,0,0,0,1.742.362,2.037,2.037,0,0,0,2.285-1.854,1.749,1.749,0,0,0-1.109-1.583ZM249.5,79.434a0.957,0.957,0,0,1,.747,1.266,1,1,0,0,1-1.041.5,1.653,1.653,0,0,1-.724-0.136h0.023a2.811,2.811,0,0,0-.9-0.158c-2.761,0-4.39,3.03-4.39,6.105,0,1.108.181,2.465,1.2,3.1a3.018,3.018,0,0,0,1.7.52,3.811,3.811,0,0,0,1.357-.249c0.656-.181,1.131.271,0.973,0.724a2.046,2.046,0,0,1-1.629,1.017,9.41,9.41,0,0,1-1.177.068c-3.575,0-5.747-1.945-5.747-5.02a7.822,7.822,0,0,1,8.055-7.892A6.753,6.753,0,0,1,249.5,79.434Zm7.437,1.945a2.018,2.018,0,0,0-1.38-.588c-3.236,0-4.028,5.223-4.028,6.987,0,2.126.905,2.872,1.946,2.872,3.575,0,4.073-6.105,4.073-7.191A2.847,2.847,0,0,0,256.941,81.379Zm2.579-.95a4.169,4.169,0,0,1,1.222,3.12c0,3.528-2.285,8.615-7.467,8.615a5.226,5.226,0,0,1-3.484-1.153,4.5,4.5,0,0,1-1.4-3.5c0-3.641,2.421-8.253,7.512-8.253A4.875,4.875,0,0,1,259.52,80.429Zm2.584,3.414a19.174,19.174,0,0,0,.34-2.917V80.791a1.137,1.137,0,0,1,1.086-1.2,6.1,6.1,0,0,0,.633-0.09c0.023,0,.091-0.023.113-0.023a1.169,1.169,0,0,1,1.426.927,0.892,0.892,0,0,1-.045.362,3.859,3.859,0,0,1,.429-0.43,5.588,5.588,0,0,1,3.417-1.131c1.425,0,3.349.5,3.349,2.4a12.144,12.144,0,0,1-.249,1.945c-0.091.475-.181,1.063-0.272,1.583-0.09.543-.2,1.04-0.294,1.56a39.189,39.189,0,0,0-.566,3.935,1.581,1.581,0,0,1-1.719,1.176h-0.2a1.066,1.066,0,0,1-1.267-1.063,28.649,28.649,0,0,0,.815-3.98l0.271-1.492a16.127,16.127,0,0,0,.34-2.646c0-1.085-.34-1.538-1.335-1.538a3.8,3.8,0,0,0-2.557,1.515,9.374,9.374,0,0,0-1.177,3.8l-0.407,2.646a14.808,14.808,0,0,0-.181,1.628,1.576,1.576,0,0,1-1.719,1.108H262.15a1.127,1.127,0,0,1-1.313-1.04,23.01,23.01,0,0,0,.543-2.668Zm13.472,2.329c-0.7-.407-2.036-1.221-2.036-2.668a4.421,4.421,0,0,1,1.945-3.234,6.929,6.929,0,0,1,3.847-1.017,5.8,5.8,0,0,1,1.561.158H280.87a1.042,1.042,0,0,1,.906,1.334,1.154,1.154,0,0,1-1.109.543,1.609,1.609,0,0,1-.769-0.158h0.022a2.671,2.671,0,0,0-1.109-.271,2.088,2.088,0,0,0-2.217,1.945,2.15,2.15,0,0,0,1.471,1.9l1.131,0.7a2.968,2.968,0,0,1,1.833,2.442,4.2,4.2,0,0,1-1.923,3.3,6.817,6.817,0,0,1-4.05,1.04,8.785,8.785,0,0,1-1.675-.158,1.311,1.311,0,0,1-1.2-1.289,1.389,1.389,0,0,1,1.9-.678H274.06a3.853,3.853,0,0,0,1.742.362,2.037,2.037,0,0,0,2.285-1.854,1.75,1.75,0,0,0-1.108-1.583ZM286.8,76.4a2,2,0,0,1-1.991,1.9,1.352,1.352,0,0,1-1.561-1.2,1.973,1.973,0,0,1,2.036-1.854A1.31,1.31,0,0,1,286.8,76.4Zm-1.81,9.927c-0.407,2.261-.588,3.6-0.656,4.364a1.576,1.576,0,0,1-1.719,1.108h-0.181a1.164,1.164,0,0,1-1.222-1.176,1.01,1.01,0,0,0,.022-0.113c0.113-.475.272-1.108,0.43-2.035l0.385-2.216a32.1,32.1,0,0,0,.724-5.269,1.1,1.1,0,0,1,1.086-1.244c0.317-.045.543-0.09,0.792-0.136a1.09,1.09,0,0,1,1.38,1,1.731,1.731,0,0,0-.045.362c-0.091.407-.2,0.95-0.34,1.7Zm2.406-2.487a19.174,19.174,0,0,0,.34-2.917V80.791a1.137,1.137,0,0,1,1.086-1.2,6.1,6.1,0,0,0,.633-0.09c0.023,0,.091-0.023.113-0.023a1.169,1.169,0,0,1,1.426.927,0.916,0.916,0,0,1-.046.362,3.961,3.961,0,0,1,.43-0.43,5.586,5.586,0,0,1,3.417-1.131c1.425,0,3.349.5,3.349,2.4a12.144,12.144,0,0,1-.249,1.945c-0.091.475-.181,1.063-0.272,1.583-0.09.543-.2,1.04-0.294,1.56a39.189,39.189,0,0,0-.566,3.935,1.581,1.581,0,0,1-1.719,1.176h-0.2a1.065,1.065,0,0,1-1.267-1.063,28.649,28.649,0,0,0,.815-3.98l0.271-1.492A16.106,16.106,0,0,0,295,82.622c0-1.085-.339-1.538-1.334-1.538a3.8,3.8,0,0,0-2.557,1.515,9.359,9.359,0,0,0-1.177,3.8l-0.407,2.646a14.808,14.808,0,0,0-.181,1.628,1.576,1.576,0,0,1-1.72,1.108h-0.181a1.126,1.126,0,0,1-1.312-1.04,23.01,23.01,0,0,0,.543-2.668Z" transform="translate(-100.594 -52.75)"/>
</svg>
