<svg xmlns="http://www.w3.org/2000/svg" width="387.406" height="182" viewBox="0 0 387.406 182">
  <defs>
    <style>
      .cls-1 {
        fill: #006b67;
        fill-rule: evenodd;
      }
    </style>
  </defs>
  <path id="dpowLogo_shadow.svg" class="cls-1" d="M314.361,201.18l-2.13,2.407-1.25,3.745-0.159,2.223-4.486,7.993L305.946,223H174.064l-0.295-.784-8.828-4.432-1.858-1.4-0.187-1.929-1.233-1.042-7.708-1.8-0.511-1.951-3.09-2.444-1.466-2.335,0.772-10.8,1.124-6.626-0.029-4.151,2.939-4.587-2.558-5.282-4.392-2.535,2.707-5.879,1.042-.886,0.573-3.472,8.927-6.093,2.69-1.093,2.456-2.385,0.916-21.962,2.084-1.771,2.48-2.7,2.812,1.788,3.854,0.9,4.9,0.015,8.114-3.914,15.143-6.306,2.621-.14,0.864,1.655-0.227,3.176-1.437,1.817-0.136,1.905-2.034,5.607,5.707-2.165,2.922,0.2,3.349,3.421,3.294-.413,1.466,2.334,4.178,0.924,1.834,1.721,0.961,4.853,1.88,1.086,26.908,7.265,3.249,0.221,5.508,5.164,3.9,0.267,1.21,1.359,1.389-1.182,1.951,0.133,6.731,1.737,4.132,1.559,1.512,1.7-0.719.909-0.414,1.248,4.459,1.581,5.016,2.9,0.378,3.855-2.351,10.054,0.951,0.385,5.266-.6,0.6,0.681-0.809,2.178L297.813,186l0.961,4.853,4.368,2.853-0.7.59-6.606,5.614-4.445,7.357-1.683,5.31-0.832,2.5,1.233,1.04,4.7-1.911,5.51-8.562,5.5-3.773,2.69-1.093,0.809-2.179,2.408-1.751,1.483-2.452-0.119-2.88,0.483-2.2,1.369-.864L316.424,186l1.392-1.181,1.648-.207,0.861,1.655L319.31,191.3ZM298.2,287l0.728,2.176-1.087,1.522,0.488,2.267-0.438,1.566L297.9,299l-86.184-.142-1.029-3.9-2.741-2.74-9.2-3.821-0.263-1.4H298.2ZM53.872,249.934a12.228,12.228,0,0,0-.262,1.948c0,1.461.712,1.5,2.774,1.5a8.729,8.729,0,0,0,7.985-4.757,23.216,23.216,0,0,0,2.4-9.478c0-5.657-2.812-7.305-7.572-7.305a7.288,7.288,0,0,0-1.424.112,1.636,1.636,0,0,1-.187.037H57.62a0.549,0.549,0,0,1-.262.038c-0.3,1.2-.487,2.248-0.712,3.521-0.412,2.173-.937,4.833-1.387,7.193C54.809,244.951,54.284,247.836,53.872,249.934ZM51.1,236.972a26.031,26.031,0,0,0,.562-5.4,2.29,2.29,0,0,1,2.549-2.21c0.712,0.038,1.387.075,2.249,0.075,0.375,0,1.387,0,2.437-.037,1.087-.038,2.212-0.075,2.661-0.075,2.437,0,8.209.187,10.2,5.469a11.842,11.842,0,0,1,.675,3.746,23.263,23.263,0,0,1-1.837,8.167c-3.823,8.766-11.358,9.1-14.357,9.1-0.337,0-1.349,0-2.4-.038-0.975-.037-2.212-0.075-2.587-0.075-0.337,0-.675,0-1.125.038H49.936c-0.075,0-.15.037-0.225,0.037-1.312.038-2.4-.936-2.1-1.948a47.283,47.283,0,0,0,1.424-6.031c0.337-1.761.675-3.634,1.05-5.432C50.423,240.531,50.76,238.77,51.1,236.972Zm30.062,6.219c-0.6,0-1.125.037-1.5,0.037l-1.275,6.893a9.327,9.327,0,0,0-.225,1.761c0,1.236.75,1.236,3,1.236a31.044,31.044,0,0,0,4.911-.337c0.038,0,.15-0.037.225-0.037a0.8,0.8,0,0,1,.337-0.075,0.686,0.686,0,0,1,.263-0.075c1.162-.262,2.249.337,2.024,1.2a3.285,3.285,0,0,1-3.336,2.06H81.647c-0.525,0-1.125-.037-1.687-0.037-1.574.037-4.161,0.037-5.623,0.037a1.756,1.756,0,0,1-1.949-2.1,59.412,59.412,0,0,0,1.35-6.181l1.05-5.732a89.966,89.966,0,0,0,1.5-10.19c0.075-1.161,1.387-2.135,2.812-2.21,1.537,0.037,3.674.037,5.21,0.037,2.137,0,4.161-.037,5.81-0.074,1.05,0.037,2.062.824,1.949,1.61-0.187.862-1.387,1.461-2.7,1.274a25.333,25.333,0,0,0-3.336-.187c-1.425,0-3,.037-4.011.075-0.075,0-.15.037-0.225,0.037-0.262,1.311-.487,2.7-0.75,4.084-0.263,1.423-.562,2.734-0.825,4.083h1.012c0.15,0,.3-0.037.45-0.037H82.1c0.562,0,1.237-.038,1.649-0.075,1.275-.075,2.587.487,2.4,1.423-0.187,1.049-1.949,1.574-3.261,1.574C82.4,243.228,81.647,243.191,81.16,243.191ZM107,244.577c0.524,1.274,1.012,2.36,1.349,3.184v-0.075c0.263-1.5.488-2.959,0.712-4.42l0.113-.675,1.387-7.605c0.3-1.61.45-2.7,0.525-3.446a2.646,2.646,0,0,1,2.811-2.1h0.188c1.274,0,2.286.974,1.949,1.948-0.488,1.424-1.125,4.009-1.612,6.181-0.075.375-.15,0.712-0.225,1.087-0.262,1.311-.525,2.772-0.825,4.158-0.3,1.424-.562,2.847-0.824,4.2a7.594,7.594,0,0,1-.15.9c-0.038.15-.075,0.337-0.113,0.487-0.412,2.21-.637,3.559-0.787,4.982,0,0.038-.038.075-0.038,0.113a2.172,2.172,0,0,0-.037.449,2.336,2.336,0,0,1-2.586,1.8,3.288,3.288,0,0,1-2.962-1.536c-0.337-.974-0.937-2.36-2.362-5.62-0.6-1.348-1.2-2.7-1.8-4.083s-1.237-2.735-1.837-4.084c-0.112-.262-0.263-0.636-0.375-0.9a20.462,20.462,0,0,1-1.649-3.858c-0.375,2.285-.637,3.933-1.2,7.53-0.15,1.011-.337,2.173-0.562,3.521-0.6,3.6-.862,5.694-0.937,6.968-0.075,1.124-1.387,2.023-2.924,1.948H91.888c-1.35,0-2.362-.936-2.1-1.873,0.637-1.836,1.687-6.406,3.3-15.1a46.084,46.084,0,0,0,.862-7.081,2.313,2.313,0,0,1,2.511-2.135h1.612a3.226,3.226,0,0,1,3.336,2.135h-0.037c0.3,0.862.675,1.686,1.349,3.185Zm16.75-5.882c0.075-.487.188-0.936,0.263-1.386,0.337-2.173.6-3.6,0.712-4.42,0.037-.15.037-0.338,0.075-0.525a0.356,0.356,0,0,0,.075-0.262h-2.437a12.505,12.505,0,0,0-3.486.337c-1.274.337-2.511-.487-2.249-1.461v0.037c0.3-1.123,1.762-1.76,3.3-1.723,0.412,0.038.9,0.038,1.424,0.038h12.333c0.225,0,.45-0.038.637-0.038h0.488a11.072,11.072,0,0,0,1.162-.037c1.312-.038,2.436.786,2.249,1.76-0.225,1.012-1.687,1.274-2.962,1.162a8.6,8.6,0,0,0-1.461-.075h-3.562c-0.412,1.611-1.049,4.795-1.349,6.294a2.3,2.3,0,0,1-.113.412l0.038-.038V239c-0.263,1.536-.562,3.034-0.862,4.645s-0.563,3.147-.862,4.758c-0.413,2.36-.713,4.346-0.825,5.357-0.113,1.124-1.462,1.911-2.887,1.911h-0.524c-1.312.037-2.624-.787-2.287-1.836,0.45-1.386,1.012-3.9,1.424-5.994Zm15.913,6.369c2.249,0.037,3.186.037,3.973,0.037,0.9,0,1.425,0,2.287-.037-0.112-1.236-.187-2.51-0.3-3.746-0.112-1.274-.262-2.51-0.375-3.747-0.15-1.2-.225-2.06-0.262-2.585v-0.037c-0.038.037-.038,0.075-0.075,0.112-0.225.375-.412,0.75-0.637,1.162-0.3.562-.6,1.086-0.825,1.5a8.363,8.363,0,0,0-.412.824Zm12.108,4.383c0.075,0.674.15,1.311,0.225,1.836,0.037,0.149.037,0.412,0.075,0.524,0.112,0.862.187,1.386,0.262,1.836,0.15,1.049-1.012,2.06-2.511,2.023l-0.113-.038h-0.412c-1.462.038-2.624-.712-2.662-1.761,0-.224-0.037-0.674-0.075-1.086-0.037-.375-0.075-1.011-0.112-1.536-0.038-.449-0.075-1.124-0.113-1.573-0.037-.637-0.075-1.2-0.112-1.761h-7.872l-0.825,1.723c-0.3.6-.562,1.236-0.862,1.8-0.45.937-.825,1.761-1.05,2.323a3.387,3.387,0,0,1-3.336,1.911,1.141,1.141,0,0,0-.337-0.038c-1.087,0-2.062-.9-1.65-1.686,1.088-1.835,2.362-4.195,3.487-6.368l0.9-1.649c1.875-3.484,5.623-10.826,7.5-14.647a4.249,4.249,0,0,1,3.823-1.761,5.605,5.605,0,0,0,.787.037c1.537,0,3,.75,3.112,1.948,0.075,1.049.15,2.1,0.262,3.185,0,0.187.037,0.374,0.037,0.562,0.038,0.187.038,0.449,0.075,0.637,0,0.149.038,0.262,0.038,0.412Zm5.865-14.123c0.337-1.836.487-3,.562-3.859a2.462,2.462,0,0,1,2.737-2.023H161.6c1.312-.037,2.361.862,2.174,1.723-0.3,1.049-.825,3.259-1.35,5.994-0.375,2.023-.749,4.2-1.124,6.331-0.375,2.173-.788,4.271-1.162,6.332a13.17,13.17,0,0,0-.263,1.985c0,0.787.225,1.049,0.637,1.086,1.238,0.075,2.137.075,2.887,0.075a14.135,14.135,0,0,0,4.2-.524c1.05-.375,2.249.225,2.1,1.049a2.542,2.542,0,0,0-.113.3h0.038a3.487,3.487,0,0,1-3.3,2.023c-2.324-.075-5.023-0.15-7.422-0.15-1.2,0-2.1.037-2.849,0.075-1.237-.038-2.4-0.937-2.137-1.874a55.034,55.034,0,0,0,1.424-6.068Zm28.708,7.267h0.675a12.253,12.253,0,0,0,4.611-.786h-0.038c2.587-1.349,3.149-4.908,3.149-6.369,0-3.671-2.961-3.671-4.573-3.671H189.75c-0.187,0-.412.037-0.674,0.037h-0.338a0.361,0.361,0,0,1-.225.038c-0.375,1.573-.562,2.584-0.712,3.3,0,0.075-.037.113-0.037,0.188-0.038.187-.075,0.337-0.113,0.524-0.075.3-.15,0.6-0.225,0.974Zm-4.011-5.806c0.487-2.66.712-4.234,0.825-5.245a2.4,2.4,0,0,1,2.624-2.135h0.6c0.937,0,2.136-.038,3.261-0.075h0.337c0.787-.038,1.912-0.075,2.324-0.075,4.349,0,7.985,1.311,7.985,5.956,0,1.8-.75,10.265-12.67,10.265h-1.687c-0.413,2.248-.787,4.5-1.2,6.781,0,0.075-.037.149-0.037,0.224a0.445,0.445,0,0,1-.075.225l0.037-.037c-0.037.337-.075,0.637-0.112,0.9a2.819,2.819,0,0,1-2.962,2.135h-0.637c-1.349,0-2.324-1.011-2.062-2.023a45.188,45.188,0,0,0,1.275-5.282c0.037-.15.075-0.337,0.112-0.487Zm23.777,5.244h0.375c0.262,0,.524.038,0.787,0.038a9.8,9.8,0,0,0,4.2-.749c2.474-1.049,3.224-3.971,3.224-5.507,0-3-1.874-3.9-4.161-3.9-0.637,0-1.237.074-2.437,0.187-0.374,1.5-.562,2.36-1.124,5.207Zm11.508-.487a10.628,10.628,0,0,1-4.873,2.623,17.251,17.251,0,0,0,4.91,9.965,1.056,1.056,0,0,1-1.049,1.611h-0.637c-0.075,0-.188-0.038-0.3-0.038-1.612,0-3.262-.449-4.011-1.573a28.246,28.246,0,0,1-2.137-3.634,21.52,21.52,0,0,1-1.874-5.619H205.58c-0.188,1.236-.412,2.584-0.675,4.008s-0.487,2.847-.712,4.083v0.15a1.641,1.641,0,0,1-.038.188,1.063,1.063,0,0,1-.037.3,2.855,2.855,0,0,1-2.886,2.136,0.813,0.813,0,0,0-.225-0.038l-0.263.038c-1.349,0-2.511-.974-2.249-1.948a57.276,57.276,0,0,0,1.35-5.882c0.262-1.386.524-2.772,0.787-4.2,0.562-3,1.124-5.994,1.649-8.841a30.494,30.494,0,0,0,.487-3.334,2.473,2.473,0,0,1,2.624-2.1h2.325c0.937-.037,2.286-0.037,2.774-0.037,0.3,0,.6-0.038.824-0.038h0.525c1.724,0,4.124.075,5.735,1.049a5.956,5.956,0,0,1,2.849,5.057A8.739,8.739,0,0,1,217.613,241.542Zm18.048-9.965c-7.122,0-9.858,8.991-9.858,14.723a11.526,11.526,0,0,0,.937,4.833,5.209,5.209,0,0,0,4.348,2.585c7.235,0,9.709-9.816,9.709-15.21,0-1.761-.225-4.421-1.874-5.844Zm10.759,6.669c0,6.293-4.2,18.019-15.557,18.019-2.7,0-6.073-.787-8.172-3.109a10.785,10.785,0,0,1-2.474-6.931c0-2.81.937-10.152,7.272-14.723a14.313,14.313,0,0,1,8.585-2.584C242.9,228.918,246.42,232.364,246.42,238.246Zm5.976,12.7c-0.225,1.2-.337,2.061-0.412,2.7a2.69,2.69,0,0,1-2.849,2.1H248.46c-1.312,0-2.361-.974-2.061-1.986a25.371,25.371,0,0,0,.9-3.9l2.474-13.224a32.039,32.039,0,0,0,.675-5.058,2.251,2.251,0,0,1,2.474-2.1h1.724c0.563,0,2.362,0,4.011-.037,0.938,0,1.837-.037,2.437-0.037h0.637c1.05-.038,1.687-0.075,2.249-0.113a2.071,2.071,0,0,1,2.1,1.986c-0.225,1.011-1.8,1.5-3.149,1.273a14.673,14.673,0,0,0-3-.262c-0.825,0-1.012,0-4.049.113-0.524,1.91-.974,4.345-1.387,6.668-0.037.262-.112,0.524-0.149,0.824a6.132,6.132,0,0,0-.113.824h0.337c0.788,0.038,1.387.038,1.95,0.038a24.78,24.78,0,0,0,3-.15c0.337-.038.637-0.075,0.9-0.113,0.075,0,.188-0.037.225-0.037h0.113c1.2-.15,2.511.637,2.436,1.536a2.711,2.711,0,0,1-3.224,1.723,16.826,16.826,0,0,0-3.148-.187h-3.112Zm19.586-7.754c-0.6,0-1.124.037-1.5,0.037l-1.275,6.893a9.327,9.327,0,0,0-.225,1.761c0,1.236.75,1.236,3,1.236a31.044,31.044,0,0,0,4.911-.337c0.037,0,.15-0.037.225-0.037a0.8,0.8,0,0,1,.337-0.075,0.689,0.689,0,0,1,.263-0.075c1.162-.262,2.249.337,2.024,1.2a3.285,3.285,0,0,1-3.336,2.06H272.47c-0.525,0-1.125-.037-1.687-0.037-1.575.037-4.161,0.037-5.623,0.037a1.756,1.756,0,0,1-1.949-2.1,59.481,59.481,0,0,0,1.349-6.181l1.05-5.732a89.976,89.976,0,0,0,1.5-10.19c0.075-1.161,1.387-2.135,2.812-2.21,1.537,0.037,3.673.037,5.21,0.037,2.137,0,4.161-.037,5.81-0.074,1.05,0.037,2.062.824,1.95,1.61-0.188.862-1.387,1.461-2.7,1.274a25.335,25.335,0,0,0-3.336-.187c-1.425,0-3,.037-4.011.075-0.075,0-.15.037-0.225,0.037-0.263,1.311-.488,2.7-0.75,4.084-0.263,1.423-.562,2.734-0.825,4.083h1.012c0.15,0,.3-0.037.45-0.037h0.412c0.563,0,1.238-.038,1.65-0.075,1.274-.075,2.586.487,2.4,1.423-0.187,1.049-1.949,1.574-3.261,1.574C273.219,243.228,272.47,243.191,271.982,243.191Zm15.823-.375c-1.949-1.274-4.123-2.7-4.123-5.432,0-3.784,3.673-8.5,11.508-8.5a18.055,18.055,0,0,1,3.636.375,2.1,2.1,0,0,1,1.8,2.51v-0.038a1.556,1.556,0,0,1-1.724.974,3.838,3.838,0,0,1-1.425-.262,6.7,6.7,0,0,0-3.223-.749,4.986,4.986,0,0,0-5.323,4.8c0,2.36,1.612,3.222,2.924,3.971l2.174,1.274c2.286,1.348,4.61,2.809,4.61,5.507,0,3.484-3.373,6.218-4.91,7.23a15.789,15.789,0,0,1-7.947,1.91,14.461,14.461,0,0,1-3.449-.412,2.094,2.094,0,0,1-1.612-2.622,1.763,1.763,0,0,1,1.875-.974,4.3,4.3,0,0,1,1.724.412l0.075,0.075a9.545,9.545,0,0,0,2.924.487c3.261,0,5.96-1.948,5.96-5.17,0-2.06-1.162-2.847-3.336-4.083Zm-3.561,10a0.138,0.138,0,0,0,.112.037Zm21.007-10c-1.949-1.274-4.124-2.7-4.124-5.432,0-3.784,3.674-8.5,11.509-8.5a18.055,18.055,0,0,1,3.636.375,2.1,2.1,0,0,1,1.8,2.51v-0.038a1.556,1.556,0,0,1-1.724.974,3.838,3.838,0,0,1-1.425-.262,6.7,6.7,0,0,0-3.224-.749,4.986,4.986,0,0,0-5.323,4.8c0,2.36,1.612,3.222,2.924,3.971l2.174,1.274c2.287,1.348,4.611,2.809,4.611,5.507,0,3.484-3.373,6.218-4.91,7.23a15.791,15.791,0,0,1-7.947,1.91,14.461,14.461,0,0,1-3.449-.412,2.093,2.093,0,0,1-1.612-2.622,1.762,1.762,0,0,1,1.874-.974,4.3,4.3,0,0,1,1.725.412l0.075,0.075a9.545,9.545,0,0,0,2.924.487c3.261,0,5.96-1.948,5.96-5.17,0-2.06-1.162-2.847-3.336-4.083Zm-3.561,10a0.138,0.138,0,0,0,.112.037Zm18.559-16.9c0.412-2.06.6-3.447,0.712-4.383a2.47,2.47,0,0,1,2.624-2.135h0.825a1.828,1.828,0,0,1,2.061,1.985c-0.3,1.012-.674,2.772-1.124,5.02-0.75,4.158-1.612,8.879-2.362,13.037-0.375,1.948-.562,3.259-0.675,4.2a2.678,2.678,0,0,1-2.886,2.06h-0.675c-1.349.038-2.361-.936-2.1-1.948,0.225-.712.412-1.5,0.712-2.772,0.038-.225.113-0.45,0.15-0.674l0.113-.45c0.037-.15.037-0.262,0.075-0.412Zm21.533-4.346c-7.122,0-9.858,8.991-9.858,14.723a11.526,11.526,0,0,0,.937,4.833,5.209,5.209,0,0,0,4.348,2.585c7.235,0,9.709-9.816,9.709-15.21,0-1.761-.225-4.421-1.874-5.844Zm10.759,6.669c0,6.293-4.2,18.019-15.557,18.019-2.7,0-6.073-.787-8.172-3.109a10.785,10.785,0,0,1-2.474-6.931c0-2.81.937-10.152,7.272-14.723a14.313,14.313,0,0,1,8.585-2.584C349.017,228.918,352.541,232.364,352.541,238.246Zm16.933,6.331c0.525,1.274,1.013,2.36,1.35,3.184v-0.075c0.262-1.5.487-2.959,0.712-4.42l0.113-.675,1.387-7.605c0.3-1.61.449-2.7,0.524-3.446a2.647,2.647,0,0,1,2.812-2.1h0.187c1.275,0,2.287.974,1.95,1.948-0.488,1.424-1.125,4.009-1.612,6.181-0.075.375-.15,0.712-0.225,1.087-0.263,1.311-.525,2.772-0.825,4.158-0.3,1.424-.562,2.847-0.825,4.2a7.394,7.394,0,0,1-.15.9c-0.037.15-.075,0.337-0.112,0.487-0.412,2.21-.637,3.559-0.787,4.982,0,0.038-.038.075-0.038,0.113a2.172,2.172,0,0,0-.037.449,2.338,2.338,0,0,1-2.587,1.8,3.288,3.288,0,0,1-2.961-1.536c-0.338-.974-0.937-2.36-2.362-5.62-0.6-1.348-1.2-2.7-1.8-4.083s-1.237-2.735-1.837-4.084c-0.112-.262-0.262-0.636-0.375-0.9a20.5,20.5,0,0,1-1.649-3.858c-0.375,2.285-.637,3.933-1.2,7.53-0.15,1.011-.337,2.173-0.562,3.521-0.6,3.6-.862,5.694-0.937,6.968-0.075,1.124-1.387,2.023-2.924,1.948h-0.337c-1.35,0-2.362-.936-2.1-1.873,0.638-1.836,1.687-6.406,3.3-15.1a46.05,46.05,0,0,0,.862-7.081,2.313,2.313,0,0,1,2.512-2.135h1.612a3.226,3.226,0,0,1,3.336,2.135h-0.037c0.3,0.862.674,1.686,1.349,3.185Zm14.911,0.487c2.249,0.037,3.186.037,3.973,0.037,0.9,0,1.425,0,2.287-.037-0.113-1.236-.188-2.51-0.3-3.746-0.113-1.274-.263-2.51-0.375-3.747-0.15-1.2-.225-2.06-0.262-2.585v-0.037c-0.038.037-.038,0.075-0.075,0.112-0.225.375-.413,0.75-0.638,1.162-0.3.562-.6,1.086-0.824,1.5a8.193,8.193,0,0,0-.413.824Zm12.108,4.383c0.074,0.674.149,1.311,0.224,1.836,0.038,0.149.038,0.412,0.075,0.524,0.113,0.862.188,1.386,0.263,1.836,0.15,1.049-1.012,2.06-2.512,2.023l-0.112-.038h-0.413c-1.461.038-2.624-.712-2.661-1.761,0-.224-0.038-0.674-0.075-1.086-0.037-.375-0.075-1.011-0.112-1.536-0.038-.449-0.075-1.124-0.113-1.573-0.037-.637-0.075-1.2-0.112-1.761h-7.872l-0.825,1.723c-0.3.6-.562,1.236-0.862,1.8-0.45.937-.825,1.761-1.05,2.323A3.388,3.388,0,0,1,377,255.666a1.141,1.141,0,0,0-.337-0.038c-1.088,0-2.062-.9-1.65-1.686,1.087-1.835,2.362-4.195,3.486-6.368l0.9-1.649c1.874-3.484,5.623-10.826,7.5-14.647a4.252,4.252,0,0,1,3.824-1.761,5.605,5.605,0,0,0,.787.037c1.537,0,3,.75,3.111,1.948,0.075,1.049.15,2.1,0.263,3.185,0,0.187.037,0.374,0.037,0.562,0.038,0.187.038,0.449,0.075,0.637,0,0.149.038,0.262,0.038,0.412Zm5.865-14.123c0.337-1.836.487-3,.562-3.859a2.462,2.462,0,0,1,2.736-2.023h0.675c1.312-.037,2.362.862,2.174,1.723-0.3,1.049-.824,3.259-1.349,5.994-0.375,2.023-.75,4.2-1.125,6.331-0.375,2.173-.787,4.271-1.162,6.332a13.142,13.142,0,0,0-.262,1.985c0,0.787.225,1.049,0.637,1.086,1.237,0.075,2.137.075,2.887,0.075a14.145,14.145,0,0,0,4.2-.524c1.05-.375,2.249.225,2.1,1.049a2.556,2.556,0,0,0-.112.3h0.037a3.486,3.486,0,0,1-3.3,2.023c-2.324-.075-5.023-0.15-7.422-0.15-1.2,0-2.1.037-2.849,0.075-1.237-.038-2.4-0.937-2.136-1.874a55.5,55.5,0,0,0,1.424-6.068Zm19.736,7.492c-1.949-1.274-4.124-2.7-4.124-5.432,0-3.784,3.674-8.5,11.509-8.5a18.055,18.055,0,0,1,3.636.375,2.1,2.1,0,0,1,1.8,2.51v-0.038a1.556,1.556,0,0,1-1.724.974,3.838,3.838,0,0,1-1.425-.262,6.7,6.7,0,0,0-3.224-.749,4.986,4.986,0,0,0-5.323,4.8c0,2.36,1.612,3.222,2.924,3.971l2.175,1.274c2.286,1.348,4.61,2.809,4.61,5.507,0,3.484-3.373,6.218-4.91,7.23a15.789,15.789,0,0,1-7.947,1.91,14.461,14.461,0,0,1-3.449-.412,2.093,2.093,0,0,1-1.612-2.622,1.762,1.762,0,0,1,1.874-.974,4.3,4.3,0,0,1,1.725.412l0.075,0.075a9.545,9.545,0,0,0,2.924.487c3.261,0,5.96-1.948,5.96-5.17,0-2.06-1.162-2.847-3.336-4.083Zm-3.561,10a0.138,0.138,0,0,0,.112.037ZM174.153,267.5a2.793,2.793,0,0,0-1.909-.813c-4.476,0-5.572,7.225-5.572,9.665,0,2.941,1.252,3.973,2.692,3.973,4.945,0,5.634-8.446,5.634-9.947A3.937,3.937,0,0,0,174.153,267.5Zm3.568-1.314a5.768,5.768,0,0,1,1.69,4.317c0,4.88-3.161,11.918-10.329,11.918a7.231,7.231,0,0,1-4.82-1.6,6.223,6.223,0,0,1-1.94-4.848c0-5.036,3.349-11.417,10.391-11.417C174.935,264.558,176.688,265.09,177.721,266.184Zm3.2-.782a1.613,1.613,0,0,1,1.534-.876c0.595-3.346,1.534-4.973,3.286-6.349a8.253,8.253,0,0,1,4.476-1.345,1.231,1.231,0,0,1,1.44,1.438,2.712,2.712,0,0,1-2.347.97c-1.534.094-2.254,2.534-2.817,5.318h0.97c0.125,0,.25-0.032.344-0.032H188.6c0.876,0,1.659.532,1.533,1.127-0.094.625-1,.969-1.909,0.969-0.407-.031-1.346-0.031-1.69-0.031h-0.407c-0.282,1.627-.563,3.222-0.814,4.942-0.281,1.721-.563,3.41-0.845,5.036a6.1,6.1,0,0,1-.125.751c-0.063.25-.094,0.532-0.157,0.782-0.093.469-.187,1.032-0.281,1.5-0.532,3-2.222,9.384-8.608,9.76a1.3,1.3,0,0,1-1.345-1.47,2.36,2.36,0,0,1,2.159-1.033,3.141,3.141,0,0,0,1.878-1.282c0.939-1.126,1.6-4.379,2.254-8.195,0.313-1.752.594-3.629,0.907-5.443,0.313-1.846.595-3.629,0.814-5.38A1.11,1.11,0,0,1,180.926,265.4Zm28.3,5.756c0.062,0.844.125,1.752,0.187,2.659q0.094,1.313.188,2.627c0.125,1.846.157,3.066,0.157,3.941,0,0.908,1.189,1.6,2.347,1.627,0.063,0,.094-0.031.157-0.031h0.594a0.68,0.68,0,0,1,.188.031,3.053,3.053,0,0,0,3.068-1.627c0.062-.187.125-0.375,0.219-0.594l0.187-.469c0.47-1.251.877-2.127,1.346-3.191,0.063-.125.094-0.25,0.157-0.375,0.782-1.72,1.627-3.628,2.535-5.6,0.908-1.939,1.784-3.879,2.535-5.6,0.094-.219.219-0.438,0.313-0.626,0.5-1.032.877-1.814,1.252-2.471,0.376-.594-0.375-1.376-1.377-1.376a1.943,1.943,0,0,1-.407.031H222.5a2.664,2.664,0,0,0-2.786,1.533c-0.97,3.691-2.942,8.477-5.665,14.8-0.063.125-.094,0.313-0.157,0.438-0.125-1.877-.188-2.346-0.313-3.941s-0.188-3.316-.344-5.068c-0.094-1.657-.157-2.815-0.157-3.722,0-.219.032-0.407,0.032-0.594v-0.469c0.031-.908-0.908-1.6-2.191-1.564-1.377.031-2.723,0.5-3.036,1.5-0.47,1.376-.971,2.659-1.784,4.5-0.783,1.721-1.565,3.441-2.379,5.193-0.657,1.345-1.252,2.721-1.847,4.1-0.031-.376-0.062-0.72-0.062-0.97-0.063-.939-0.126-1.564-0.157-2.722l-0.407-8.727c-0.031-.5-0.031-0.938-0.031-1.345,0-.5,0-0.938.031-1.313a1.908,1.908,0,0,0-2.159-1.69h-0.595c-1.127-.031-2.1.72-1.972,1.564a28.373,28.373,0,0,1,.407,3.942c0,0.094.031,0.219,0.031,0.344l0.689,11.761a25.371,25.371,0,0,1,.062,2.565c0,0.907,1.1,1.752,2.317,1.783,0.062,0,.093-0.031.156-0.031h0.438a0.709,0.709,0,0,1,.219.031A3.234,3.234,0,0,0,204,280.448l0.751-1.846a2.058,2.058,0,0,1,.094-0.25,57.813,57.813,0,0,1,2.6-5.6h-0.032a3.854,3.854,0,0,0,.188-0.344c0.125-.281.282-0.626,0.438-1,0.157-.313.345-0.657,0.5-1,0.219-.438.376-0.813,0.563-1.189C209.13,269.75,209.161,270.345,209.224,271.158Zm-7.763,6.506h-0.156c0-2,.031-3.847.5-0.751A7.723,7.723,0,0,1,201.461,277.664Zm28.626-17.048a2.765,2.765,0,0,1-2.754,2.628c-1.064,0-2.16-.5-2.16-1.658a2.73,2.73,0,0,1,2.817-2.565C229.086,259.021,230.087,259.553,230.087,260.616Zm-2.5,13.732c-0.563,3.128-.814,4.974-0.907,6.037-0.063.908-1.19,1.533-2.379,1.533h-0.251a1.61,1.61,0,0,1-1.69-1.626,1.356,1.356,0,0,0,.032-0.157c0.156-.657.375-1.533,0.594-2.815l0.532-3.065a44.552,44.552,0,0,0,1-7.289,1.517,1.517,0,0,1,1.5-1.72c0.438-.063.751-0.125,1.1-0.188a1.507,1.507,0,0,1,1.909,1.377,2.447,2.447,0,0,0-.063.5c-0.125.563-.281,1.314-0.469,2.346Zm4.759-.219c-0.971-.563-2.817-1.689-2.817-3.691,0-1.689,1.158-3.253,2.692-4.473a9.586,9.586,0,0,1,5.32-1.407,8.007,8.007,0,0,1,2.16.219h-0.031a1.44,1.44,0,0,1,1.252,1.845,1.594,1.594,0,0,1-1.534.751,2.235,2.235,0,0,1-1.064-.219h0.031a3.689,3.689,0,0,0-1.533-.375,2.889,2.889,0,0,0-3.068,2.69c0,1.47,1,2.033,2.035,2.627l1.565,0.97c1,0.594,2.535,1.533,2.535,3.378a5.816,5.816,0,0,1-2.661,4.567,9.426,9.426,0,0,1-5.6,1.439,12.139,12.139,0,0,1-2.316-.219c-1.1-.282-1.847-1.095-1.659-1.783a1.92,1.92,0,0,1,2.629-.938h-0.031a5.334,5.334,0,0,0,2.41.5c2.066,0,3.161-1.314,3.161-2.565a2.418,2.418,0,0,0-1.534-2.189Zm21.232-9.321a1.324,1.324,0,0,1,1.033,1.752,1.383,1.383,0,0,1-1.439.688,2.29,2.29,0,0,1-1-.188H252.2a3.879,3.879,0,0,0-1.252-.219c-3.818,0-6.072,4.192-6.072,8.446,0,1.533.251,3.409,1.659,4.285a4.174,4.174,0,0,0,2.347.72,5.289,5.289,0,0,0,1.878-.344c0.908-.251,1.565.375,1.346,1a2.826,2.826,0,0,1-2.253,1.408,12.966,12.966,0,0,1-1.628.094c-4.945,0-7.95-2.69-7.95-6.944a10.82,10.82,0,0,1,11.143-10.917A9.346,9.346,0,0,1,253.574,264.808Zm10.288,2.69a2.793,2.793,0,0,0-1.91-.813c-4.476,0-5.571,7.225-5.571,9.665,0,2.941,1.252,3.973,2.692,3.973,4.945,0,5.634-8.446,5.634-9.947A3.941,3.941,0,0,0,263.862,267.5Zm3.568-1.314a5.772,5.772,0,0,1,1.69,4.317c0,4.88-3.161,11.918-10.329,11.918a7.231,7.231,0,0,1-4.82-1.6,6.223,6.223,0,0,1-1.941-4.848c0-5.036,3.349-11.417,10.392-11.417C264.644,264.558,266.4,265.09,267.43,266.184ZM271,270.908a26.657,26.657,0,0,0,.47-4.036v-0.187a1.573,1.573,0,0,1,1.5-1.658,8.529,8.529,0,0,0,.877-0.125c0.031,0,.125-0.031.156-0.031,1-.126,2.066.531,1.972,1.282a1.256,1.256,0,0,1-.063.5,5.384,5.384,0,0,1,.595-0.595,7.728,7.728,0,0,1,4.726-1.564c1.972,0,4.633.688,4.633,3.316a16.75,16.75,0,0,1-.345,2.69c-0.125.657-.25,1.47-0.375,2.19-0.125.75-.282,1.438-0.407,2.158a54.02,54.02,0,0,0-.783,5.443c-0.062.938-1.158,1.626-2.378,1.626H281.3c-1.033.031-1.972-.688-1.753-1.47a39.536,39.536,0,0,0,1.127-5.5l0.375-2.065a22.306,22.306,0,0,0,.47-3.66c0-1.5-.47-2.127-1.847-2.127a5.259,5.259,0,0,0-3.537,2.1c-0.97,1.251-1.345,3.566-1.627,5.255l-0.564,3.66a20.356,20.356,0,0,0-.25,2.252c-0.063.907-1.189,1.533-2.379,1.533h-0.25c-1.064.031-1.972-.72-1.815-1.439a31.825,31.825,0,0,0,.751-3.691Zm18.636,3.221c-0.97-.563-2.817-1.689-2.817-3.691,0-1.689,1.158-3.253,2.692-4.473a9.589,9.589,0,0,1,5.321-1.407,8.012,8.012,0,0,1,2.16.219h-0.032a1.44,1.44,0,0,1,1.252,1.845,1.593,1.593,0,0,1-1.533.751,2.239,2.239,0,0,1-1.065-.219h0.032a3.7,3.7,0,0,0-1.534-.375,2.889,2.889,0,0,0-3.067,2.69c0,1.47,1,2.033,2.034,2.627l1.565,0.97c1,0.594,2.535,1.533,2.535,3.378a5.814,5.814,0,0,1-2.66,4.567,9.431,9.431,0,0,1-5.6,1.439,12.147,12.147,0,0,1-2.316-.219c-1.095-.282-1.847-1.095-1.659-1.783a1.92,1.92,0,0,1,2.629-.938h-0.031a5.34,5.34,0,0,0,2.41.5c2.066,0,3.161-1.314,3.161-2.565a2.419,2.419,0,0,0-1.533-2.189Zm15.53-13.513a2.765,2.765,0,0,1-2.754,2.628c-1.064,0-2.16-.5-2.16-1.658a2.729,2.729,0,0,1,2.817-2.565C304.169,259.021,305.17,259.553,305.17,260.616Zm-2.5,13.732c-0.563,3.128-.814,4.974-0.908,6.037-0.062.908-1.189,1.533-2.378,1.533h-0.251a1.61,1.61,0,0,1-1.69-1.626,1.394,1.394,0,0,0,.031-0.157c0.157-.657.376-1.533,0.595-2.815l0.532-3.065a44.552,44.552,0,0,0,1-7.289,1.517,1.517,0,0,1,1.5-1.72c0.438-.063.751-0.125,1.1-0.188a1.507,1.507,0,0,1,1.909,1.377,2.447,2.447,0,0,0-.063.5c-0.125.563-.281,1.314-0.469,2.346Zm3.328-3.44a26.657,26.657,0,0,0,.47-4.036v-0.187a1.572,1.572,0,0,1,1.5-1.658,8.529,8.529,0,0,0,.877-0.125c0.031,0,.125-0.031.156-0.031,1-.126,2.066.531,1.972,1.282a1.256,1.256,0,0,1-.063.5,5.384,5.384,0,0,1,.595-0.595,7.728,7.728,0,0,1,4.726-1.564c1.972,0,4.633.688,4.633,3.316a16.75,16.75,0,0,1-.345,2.69c-0.125.657-.25,1.47-0.375,2.19-0.126.75-.282,1.438-0.407,2.158a54.02,54.02,0,0,0-.783,5.443c-0.062.938-1.158,1.626-2.378,1.626h-0.282c-1.033.031-1.972-.688-1.753-1.47a39.536,39.536,0,0,0,1.127-5.5l0.375-2.065a22.306,22.306,0,0,0,.47-3.66c0-1.5-.47-2.127-1.847-2.127a5.259,5.259,0,0,0-3.537,2.1c-0.97,1.251-1.345,3.566-1.627,5.255l-0.564,3.66a20.356,20.356,0,0,0-.25,2.252c-0.063.907-1.189,1.533-2.379,1.533h-0.25c-1.064.031-1.972-.72-1.815-1.439a31.825,31.825,0,0,0,.751-3.691Z" transform="translate(-47.563 -117)"/>
</svg>
