<svg xmlns="http://www.w3.org/2000/svg" width="96" height="101" viewBox="0 0 96 101">
  <defs>
    <style>
      .cls-1 {
        fill: #fff;
        fill-rule: evenodd;
      }
    </style>
  </defs>
  <path id="wi.svg" class="cls-1" d="M220.933,109.922l-0.569-2.165-1.516-1.521-5.087-2.12-1.178-6.28-0.7-2.882,1.59-2.016,0.1-1.411-1.852-1.9-0.7-2.882-0.25-4.091,0.38-2.808-0.63-1.282-4.961-3.882-4.254-3.658-1.365-3.636-4.883-2.46-1.028-.778-0.1-1.07-0.682-.579-4.264-1L188.7,60.419l-1.71-1.356-0.811-1.3,0.428-5.993,0.621-3.677-0.016-2.3,1.626-2.545-1.415-2.931L185,38.91l1.5-3.263,0.576-.491,0.317-1.927,4.938-3.381,1.488-.607,1.358-1.323,0.507-12.188,1.153-.983,1.371-1.5,1.556,0.992,2.131,0.5,2.709,0.008,4.488-2.172,8.376-3.5L218.912,9l0.477,0.918-0.125,1.763-0.8,1.009-0.075,1.057-1.125,3.112,3.156-1.2,1.616,0.111,1.853,1.9,1.822-.229,0.811,1.3,2.31,0.513,1.015,0.955,0.531,2.693,1.04,0.6,14.883,4.031,1.8,0.123,3.046,2.866,2.157,0.148,0.669,0.754,0.768-.656,1.08,0.074,3.723,0.964,2.285,0.865,0.836,0.943-0.4.5-0.229.693,2.466,0.877,2.775,1.608,0.209,2.139-1.3,5.579,0.526,0.213,2.913-.333,0.334,0.378-0.447,1.209-0.962.82,0.532,2.693L271.5,51.57l-0.385.327-3.654,3.116L265.005,59.1l-0.931,2.947-0.46,1.386,0.682,0.577,2.6-1.061,3.047-4.751,3.04-2.094,1.488-.606,0.447-1.209,1.332-.972,0.82-1.36-0.066-1.6,0.267-1.222,0.757-.479,0.818-1.361,0.77-.655,0.912-.115,0.476,0.918-0.561,2.8-2.738,5.481-1.178,1.336-0.691,2.078-0.088,1.233L273.269,64.8l-0.289,4.054L272.6,71.66l-2.308,1.968L269.652,75l0.493,3.223-0.21,5.476-0.986,1.172-2.2,5.518,0.489,8.358,1.934,5.8-0.6.845,0.27,1.258-0.242.869,0,2.48Z" transform="translate(-185 -9)"/>
</svg>
